<svg width="186" height="1079" viewBox="0 0 186 1079" fill="none" xmlns="http://www.w3.org/2000/svg">
<path d="M119.454 92.8979L119.454 100.526L4.02295 151.63L4.02295 115.018L88.9434 78.4055L88.9434 73.829L4.02294 37.2166L4.02294 0.604187L119.454 51.709L119.454 59.3366L182 59.3366L182 92.8979L119.454 92.8979Z" fill="white"/>
<path d="M4.02295 295.869L4.02294 167.726L36.0588 167.726L36.0588 215.017L182 215.017L182 248.578L36.0588 248.578L36.0588 295.869L4.02295 295.869Z" fill="white"/>
<path d="M4.02295 444.43L4.02294 332.051L36.0588 332.051L36.0588 410.869L76.7393 410.869L76.7393 335.102L108.775 335.102L108.775 410.869L149.964 410.869L149.964 329L182 329L182 444.43L4.02295 444.43Z" fill="white"/>
<path d="M4.02295 602.653L4.02294 483.663L36.0588 483.663L36.0588 526.377L149.964 526.377L149.964 483.663L182 483.663L182 602.653L149.964 602.653L149.964 559.939L36.0588 559.939L36.0588 602.653L4.02295 602.653Z" fill="white"/>
<path d="M155.049 698.33C155.049 691.888 154.117 686.634 152.252 682.566C150.218 678.328 147.591 675.108 144.371 672.904C140.98 670.531 137.167 668.921 132.929 668.073C128.522 667.226 124.03 666.802 119.454 666.802L114.877 666.802L114.877 633.241L119.454 633.241C140.641 633.241 156.998 638.834 168.525 650.022C179.881 661.039 185.559 677.142 185.559 698.33C185.559 718.67 179.373 734.772 166.999 746.638C154.625 758.503 136.573 764.435 112.843 764.435L73.1797 764.435C61.8231 764.435 51.653 762.91 42.6694 759.859C33.5163 756.808 25.8887 752.401 19.7866 746.638C13.515 740.875 8.769 733.925 5.54846 725.789C2.15841 717.653 0.463376 708.5 0.463376 698.33C0.463376 687.82 1.98891 678.498 5.03994 670.362C8.09098 662.226 12.498 655.446 18.2611 650.022C24.0241 644.428 30.9737 640.275 39.1098 637.563C47.2459 634.682 56.399 633.241 66.5691 633.241L71.1457 633.241L71.1457 666.802L66.5691 666.802C62.3316 666.802 58.094 667.311 53.8565 668.328C49.6189 669.345 45.8052 671.04 42.4151 673.413C39.0251 675.786 36.313 679.006 34.279 683.074C32.0755 687.142 30.9737 692.227 30.9737 698.33C30.9737 703.923 32.0755 708.754 34.279 712.822C36.313 716.89 39.1946 720.28 42.9236 722.992C46.4832 725.704 50.7207 727.738 55.6363 729.094C60.3823 730.281 65.3826 730.874 70.6372 730.874L115.386 730.874C121.149 730.874 126.488 730.281 131.404 729.094C136.15 727.908 140.302 726.043 143.862 723.501C147.422 720.958 150.218 717.653 152.252 713.585C154.117 709.347 155.049 704.262 155.049 698.33Z" fill="white"/>
<path d="M73.1797 920.116C50.1275 920.116 32.245 914.353 19.5323 902.827C6.81971 891.131 0.463377 875.028 0.463376 854.518C0.463375 834.009 6.8197 817.991 19.5323 806.465C32.245 794.769 50.1275 788.921 73.1797 788.921L112.843 788.921C136.573 788.921 154.625 794.769 166.999 806.465C179.373 817.991 185.559 834.009 185.559 854.518C185.559 875.028 179.373 891.131 166.999 902.827C154.625 914.353 136.573 920.116 112.843 920.116L73.1797 920.116ZM155.049 854.518C155.049 848.416 154.117 843.331 152.252 839.263C150.218 835.195 147.422 831.89 143.862 829.347C140.302 826.805 136.065 825.025 131.149 824.008C126.234 822.991 120.81 822.483 114.877 822.483L71.1457 822.483C65.5521 822.483 60.2976 823.076 55.382 824.262C50.4665 825.449 46.2289 827.313 42.6694 829.856C39.1098 832.398 36.313 835.704 34.279 839.772C32.0755 843.84 30.9737 848.755 30.9737 854.518C30.9737 860.282 32.0755 865.197 34.279 869.265C36.313 873.333 39.1098 876.638 42.6694 879.181C46.2289 881.724 50.4665 883.588 55.382 884.775C60.2976 885.961 65.5521 886.554 71.1457 886.554L114.877 886.554C120.81 886.554 126.234 886.046 131.149 885.029C136.065 884.012 140.302 882.232 143.862 879.69C147.422 877.147 150.218 873.842 152.252 869.774C154.117 865.706 155.049 860.621 155.049 854.518Z" fill="white"/>
<path d="M58.433 979.689C51.314 979.689 45.1271 982.485 39.8726 988.079C34.618 993.503 31.9907 1001.22 31.9908 1011.22C31.9908 1019.69 33.7705 1026.39 37.3301 1031.3C40.7201 1036.22 45.3814 1038.68 51.314 1038.68C54.365 1038.68 57.1618 1038.08 59.7043 1036.9C62.0773 1035.71 64.2809 1033.67 66.3149 1030.79C68.1794 1027.74 69.8744 1023.84 71.3999 1019.1C72.9254 1014.18 74.3662 1008 75.7222 1000.54C79.1123 981.892 84.7906 967.654 92.7572 957.823C100.724 947.992 112.504 943.076 128.098 943.076L131.149 943.076C139.455 943.076 146.998 944.602 153.778 947.653C160.388 950.534 166.067 954.772 170.813 960.365C175.559 965.959 179.203 972.739 181.746 980.706C184.288 988.672 185.559 997.656 185.559 1007.66C185.559 1019.35 183.949 1029.69 180.729 1038.68C177.339 1047.49 172.762 1054.86 166.999 1060.8C161.066 1066.73 154.202 1071.22 146.405 1074.27C138.438 1077.32 129.793 1078.85 120.471 1078.85L112.843 1078.85L112.843 1045.29L118.945 1045.29C129.624 1045.29 138.184 1042.23 144.625 1036.13C150.896 1029.86 154.032 1020.2 154.032 1007.15C154.032 996.978 151.829 989.435 147.422 984.519C143.014 979.604 137.76 977.146 131.658 977.146C128.776 977.146 126.064 977.655 123.522 978.672C120.81 979.689 118.437 981.468 116.403 984.011C114.199 986.553 112.25 990.028 110.555 994.435C108.86 998.842 107.419 1004.44 106.233 1011.22C104.707 1020.2 102.758 1028.42 100.385 1035.88C97.8422 1043.34 94.5369 1049.86 90.4689 1055.46C86.4009 1060.88 81.3158 1065.12 75.2137 1068.17C69.1117 1071.22 61.6536 1072.75 52.8395 1072.75L51.314 1072.75C44.0254 1072.75 37.3301 1071.3 31.228 1068.42C24.9564 1065.37 19.5324 1061.22 14.9558 1055.96C10.3793 1050.54 6.81973 1044.1 4.27719 1036.64C1.73466 1029.01 0.463376 1020.54 0.463376 1011.22C0.463375 1000.71 1.98891 991.384 5.03994 983.248C7.92148 975.112 11.9048 968.332 16.9898 962.908C22.0749 957.314 27.9227 953.162 34.5333 950.449C41.1438 947.568 48.0934 946.127 55.382 946.127L64.5351 946.127L64.5351 979.689L58.433 979.689Z" fill="white"/>
</svg>
