<svg width="186" height="1057" viewBox="0 0 186 1057" fill="none" xmlns="http://www.w3.org/2000/svg">
<path d="M181.966 941.93L181.966 975.491L36.0247 975.491L36.0247 1056.34L3.98881 1056.34L3.98882 941.93L181.966 941.93Z" fill="white"/>
<path d="M181.966 783.707L181.966 902.698L149.93 902.698L149.93 859.983L36.0247 859.983L36.0247 902.698L3.98881 902.698L3.98882 783.707L36.0247 783.707L36.0247 826.422L149.93 826.422L149.93 783.707L181.966 783.707Z" fill="white"/>
<path d="M112.809 621.925C135.861 621.925 153.744 627.688 166.456 639.214C179.169 650.91 185.525 667.013 185.525 687.522C185.525 708.032 179.169 724.05 166.456 735.576C153.744 747.272 135.861 753.12 112.809 753.12L73.1456 753.12C49.4154 753.12 31.3634 747.272 18.9898 735.576C6.61612 724.05 0.429302 708.032 0.429303 687.522C0.429304 667.013 6.61612 650.91 18.9898 639.214C31.3634 627.688 49.4154 621.925 73.1456 621.925L112.809 621.925ZM30.9396 687.522C30.9396 693.624 31.8719 698.709 33.7364 702.777C35.7705 706.846 38.5672 710.151 42.1268 712.693C45.6863 715.236 49.9239 717.016 54.8394 718.033C59.755 719.05 65.179 719.558 71.1116 719.558L114.843 719.558C120.437 719.558 125.691 718.965 130.607 717.778C135.522 716.592 139.76 714.727 143.319 712.185C146.879 709.642 149.676 706.337 151.71 702.269C153.913 698.201 155.015 693.285 155.015 687.522C155.015 681.759 153.913 676.844 151.71 672.776C149.676 668.708 146.879 665.402 143.319 662.86C139.76 660.317 135.522 658.453 130.607 657.266C125.691 656.08 120.437 655.486 114.843 655.486L71.1116 655.486C65.179 655.486 59.755 655.995 54.8394 657.012C49.9239 658.029 45.6863 659.809 42.1268 662.351C38.5672 664.894 35.7705 668.199 33.7364 672.267C31.8719 676.335 30.9396 681.42 30.9396 687.522Z" fill="white"/>
<path d="M181.966 476.415L181.966 590.32L149.93 590.32L149.93 509.976L109.249 509.976L109.249 588.795L77.2136 588.795L77.2136 509.976L3.98881 509.976L3.98882 476.415L181.966 476.415Z" fill="white"/>
<path d="M20.7695 400.316L20.7695 404.892L181.966 404.892L181.966 438.454L3.98881 438.454L3.98881 372.857L165.185 352.008L165.185 347.431L3.98881 347.431L3.98882 313.87L181.966 313.87L181.966 379.467L20.7695 400.316Z" fill="white"/>
<path d="M181.966 160.986L181.966 279.977L149.93 279.977L149.93 237.262L36.0247 237.262L36.0247 279.977L3.98881 279.977L3.98882 160.986L36.0247 160.986L36.0247 203.701L149.93 203.701L149.93 160.986L181.966 160.986Z" fill="white"/>
<path d="M181.966 0.729736L181.966 128.873L149.93 128.873L149.93 81.5821L3.98881 81.5821L3.98881 48.0208L149.93 48.0208L149.93 0.729735L181.966 0.729736Z" fill="white"/>
</svg>
